/* XPM */
static const char *um_xpm[] = {
"34 34 2 1",
".	c #AEAEAE",
"+	c #89CFF0",
"..................................",
"............+++++++++.............",
"............+++++++++.............",
"............+++++++++.............",
"............+++++++++.............",
"............+++++++++.............",
"........+++++++++++++.............",
"........+++++++++++++.............",
"........+++++++++++++.............",
"........+++++++++++++.............",
"........+++++++++++++.............",
"............+++++++++.............",
"............+++++++++.............",
"............+++++++++.............",
"............+++++++++.............",
"............+++++++++.............",
"............+++++++++.............",
"............+++++++++.............",
"............+++++++++.............",
"............+++++++++.............",
"............+++++++++.............",
"............+++++++++.............",
"............+++++++++.............",
"............+++++++++.............",
"............+++++++++.............",
"............+++++++++.............",
"............+++++++++.............",
"....++++++++++++++++++++++++++....",
"....++++++++++++++++++++++++++....",
"....++++++++++++++++++++++++++....",
"....++++++++++++++++++++++++++....",
"....++++++++++++++++++++++++++....",
"..................................",
".................................."};
