/* XPM */
static const char *choice10[] = {
"75 50 2 1",
".	c #aeaeae",
"+	c #89CFF0",
"...........................................................................",
"...........................................................................",
"...........................................................................",
"...........................................................................",
"...........................................................................",
"...........................................................................",
"...........................................................................",
"...........................................................................",
"...........................................................................",
".................++++++++....................++++++++++++..................",
".................++++++++....................++++++++++++..................",
".................++++++++....................++++++++++++..................",
".................++++++++....................++++++++++++..................",
".............++++++++++++................++++........++++++++..............",
".............++++++++++++................++++........++++++++..............",
".............++++++++++++................++++........++++++++..............",
".............++++++++++++................++++........++++++++..............",
".................++++++++............++++++++............++++++++..........",
".................++++++++............++++++++............++++++++..........",
".................++++++++............++++++++............++++++++..........",
".................++++++++............++++++++............++++++++..........",
".................++++++++............++++++++............++++++++..........",
".................++++++++............++++++++............++++++++..........",
".................++++++++............++++++++............++++++++..........",
".................++++++++............++++++++............++++++++..........",
".................++++++++............++++++++............++++++++..........",
".................++++++++............++++++++............++++++++..........",
".................++++++++............++++++++............++++++++..........",
".................++++++++............++++++++............++++++++..........",
".................++++++++................++++++++........++++..............",
".................++++++++................++++++++........++++..............",
".................++++++++................++++++++........++++..............",
".................++++++++................++++++++........++++..............",
".........++++++++++++++++++++++++............++++++++++++..................",
".........++++++++++++++++++++++++............++++++++++++..................",
".........++++++++++++++++++++++++............++++++++++++..................",
".........++++++++++++++++++++++++............++++++++++++..................",
"...........................................................................",
"...........................................................................",
"...........................................................................",
"...........................................................................",
"...........................................................................",
"...........................................................................",
"...........................................................................",
"...........................................................................",
"...........................................................................",
"...........................................................................",
"...........................................................................",
"...........................................................................",
"..........................................................................."};
