/* XPM */
static const char *choice20[] = {
"75 50 2 1",
".	c #aeaeae",
"+	c #89CFF0",
"...........................................................................",
"...........................................................................",
"...........................................................................",
"...........................................................................",
"...........................................................................",
"...........................................................................",
"...........................................................................",
"...........................................................................",
"...........................................................................",
".........++++++++++++++++++++................++++++++++++..................",
".........++++++++++++++++++++................++++++++++++..................",
".........++++++++++++++++++++................++++++++++++..................",
".........++++++++++++++++++++................++++++++++++..................",
".....++++++++............++++++++........++++........++++++++..............",
".....++++++++............++++++++........++++........++++++++..............",
".....++++++++............++++++++........++++........++++++++..............",
".....++++++++............++++++++........++++........++++++++..............",
".....................++++++++++++....++++++++............++++++++..........",
".....................++++++++++++....++++++++............++++++++..........",
".....................++++++++++++....++++++++............++++++++..........",
".....................++++++++++++....++++++++............++++++++..........",
".............++++++++++++++++........++++++++............++++++++..........",
".............++++++++++++++++........++++++++............++++++++..........",
".............++++++++++++++++........++++++++............++++++++..........",
".............++++++++++++++++........++++++++............++++++++..........",
".........++++++++++++++++............++++++++............++++++++..........",
".........++++++++++++++++............++++++++............++++++++..........",
".........++++++++++++++++............++++++++............++++++++..........",
".........++++++++++++++++............++++++++............++++++++..........",
".....++++++++++++........................++++++++........++++..............",
".....++++++++++++........................++++++++........++++..............",
".....++++++++++++........................++++++++........++++..............",
".....++++++++++++........................++++++++........++++..............",
".....++++++++++++++++++++++++++++............++++++++++++..................",
".....++++++++++++++++++++++++++++............++++++++++++..................",
".....++++++++++++++++++++++++++++............++++++++++++..................",
".....++++++++++++++++++++++++++++............++++++++++++..................",
"...........................................................................",
"...........................................................................",
"...........................................................................",
"...........................................................................",
"...........................................................................",
"...........................................................................",
"...........................................................................",
"...........................................................................",
"...........................................................................",
"...........................................................................",
"...........................................................................",
"...........................................................................",
"..........................................................................."};
