/* XPM */
static const char *six_xpm[] = {
"34 34 2 1",
".	c #AEAEAE",
"+	c #89CFF0",
"..................................",
"...........+++++++++++++++++......",
"...........+++++++++++++++++......",
"...........+++++++++++++++++......",
"...........+++++++++++++++++......",
"......++++++++++++++++++++++......",
"......+++++++++...................",
"......+++++++++...................",
"......+++++++++...................",
"......+++++++++...................",
"..+++++++++.......................",
"..+++++++++.......................",
"..+++++++++.......................",
"..+++++++++.......................",
"..++++++++++++++++++++++++++......",
"..++++++++++++++++++++++++++......",
"..++++++++++++++++++++++++++......",
"..++++++++++++++++++++++++++......",
"..+++++++++............+++++++++..",
"..+++++++++............+++++++++..",
"..+++++++++............+++++++++..",
"..+++++++++............+++++++++..",
"..+++++++++............+++++++++..",
"..+++++++++............+++++++++..",
"..+++++++++............+++++++++..",
"..+++++++++............+++++++++..",
"..+++++++++............+++++++++..",
"......++++++++++++++++++++++......",
"......++++++++++++++++++++++......",
"......++++++++++++++++++++++......",
"......++++++++++++++++++++++......",
"......++++++++++++++++++++++......",
"..................................",
".................................."};
