/* XPM */
static const char *sete_xpm[] = {
"34 34 2 1",
".	c #89CFF0",
"+	c #AEAEAE",
"++++++++++++++++++++++++++++++++++",
"++..............................++",
"++..............................++",
"++..............................++",
"++..............................++",
"++..............................++",
"++.........++++++++++++.........++",
"++.........++++++++++++.........++",
"++.........++++++++++++.........++",
"++.........++++++++++++.........++",
"+++++++++++++++++++.........++++++",
"+++++++++++++++++++.........++++++",
"+++++++++++++++++++.........++++++",
"+++++++++++++++++++.........++++++",
"++++++++++++++..............++++++",
"++++++++++++++.........+++++++++++",
"++++++++++++++.........+++++++++++",
"++++++++++++++.........+++++++++++",
"++++++++++++++.........+++++++++++",
"++++++++++.........+++++++++++++++",
"++++++++++.........+++++++++++++++",
"++++++++++.........+++++++++++++++",
"++++++++++.........+++++++++++++++",
"++++++++++.........+++++++++++++++",
"++++++++++.........+++++++++++++++",
"++++++++++.........+++++++++++++++",
"++++++++++.........+++++++++++++++",
"++++++++++.........+++++++++++++++",
"++++++++++.........+++++++++++++++",
"++++++++++.........+++++++++++++++",
"++++++++++.........+++++++++++++++",
"++++++++++.........+++++++++++++++",
"++++++++++++++++++++++++++++++++++",
"++++++++++++++++++++++++++++++++++"};
