/* XPM */
static const char *oito_xpm[] = {
"34 34 2 1",
".	c #AEAEAE",
"+	c #89CFF0",
"..................................",
"......+++++++++++++++++...........",
"......+++++++++++++++++...........",
"......+++++++++++++++++...........",
"......+++++++++++++++++...........",
"......+++++++++++++++++...........",
"..+++++++++............++++.......",
"..+++++++++............++++.......",
"..+++++++++............++++.......",
"..+++++++++............++++.......",
"..+++++++++++++........++++.......",
"..+++++++++++++........++++.......",
"..+++++++++++++........++++.......",
"..+++++++++++++........++++.......",
"..+++++++++++++........++++.......",
"......+++++++++++++++++...........",
"......+++++++++++++++++...........",
"......+++++++++++++++++...........",
"......+++++++++++++++++...........",
"..++++........++++++++++++++++++..",
"..++++........++++++++++++++++++..",
"..++++........++++++++++++++++++..",
"..++++........++++++++++++++++++..",
"..++++........++++++++++++++++++..",
"..++++.................+++++++++..",
"..++++.................+++++++++..",
"..++++.................+++++++++..",
"..++++++++++++++++++++++++++++++..",
"......+++++++++++++++++++++.......",
"......+++++++++++++++++++++.......",
"......+++++++++++++++++++++.......",
"......+++++++++++++++++++++.......",
"..................................",
".................................."};
