/* XPM */
static const char * blueHeart[] = {
"35 35 3 1",
" 	c #000000",
".	c #3F48CC",
"+	c #aeaeae",
"+++++++++++++++++++++++++++++++++++",
"+++++++++++++++++++++++++++++++++++",
"+++++++++++++++++++++++++++++++++++",
"+++++++++++++++++++++++++++++++++++",
"+++++++++++++++++++++++++++++++++++",
"+++++++++++++++++++++++++++++++++++",
"+++++++       ++++++        +++++++",
"+++++++       ++++++        +++++++",
"++++  .........     .........  ++++",
"++++  .........     .........  ++++",
"++++  .........     .........  ++++",
"++++  .......................  ++++",
"++++  .......................  ++++",
"++++  .......................  ++++",
"++++  .......................  ++++",
"++++  .......................  ++++",
"++++++.......................++++++",
"+++++++  .................  +++++++",
"+++++++  .................  +++++++",
"+++++++++.................+++++++++",
"+++++++++   ...........   +++++++++",
"+++++++++   ...........   +++++++++",
"++++++++++++  .......  ++++++++++++",
"++++++++++++   .....   ++++++++++++",
"++++++++++++   .....   ++++++++++++",
"+++++++++++++++     +++++++++++++++",
"+++++++++++++++     +++++++++++++++",
"+++++++++++++++     +++++++++++++++",
"+++++++++++++++++++++++++++++++++++",
"+++++++++++++++++++++++++++++++++++",
"+++++++++++++++++++++++++++++++++++",
"+++++++++++++++++++++++++++++++++++",
"+++++++++++++++++++++++++++++++++++",
"+++++++++++++++++++++++++++++++++++",
"+++++++++++++++++++++++++++++++++++"};

