/* XPM */
static const char * bluePlayer[] = {
"28 28 3 1",
" 	c #aeaeae",
".	c #000000",
"+	c #3F48CC",
"           .......          ",
"         ............       ",
"       ...............      ",
"      ......+++++......     ",
"     ....+++++++++++....    ",
"    ....+++++++++++++....   ",
"   ....+++++++++++++++....  ",
"   ...+++++++++++++++++...  ",
"  ....++++++++++++++++++... ",
"  ...+++++++++++++++++++... ",
" ....+++++++++++++++++++....",
" ...+++++++++++++++++++++...",
" ...+++++++++++++++++++++...",
" ...+++++++++++++++++++++...",
" ...+++++++++++++++++++++...",
" ...+++++++++++++++++++++...",
" ...+++++++++++++++++++++...",
" ....+++++++++++++++++++....",
"  ...+++++++++++++++++++... ",
"  ....++++++++++++++++++... ",
"   ...+++++++++++++++++...  ",
"   ....+++++++++++++++....  ",
"    ....+++++++++++++....   ",
"     ....+++++++++++....    ",
"      .....+++++++.....     ",
"       ...............      ",
"         ............       ",
"           .......          "};
