/* XPM */
static const char *buyMenu[] = {
"315 60 2 1",
".	c #aeaeae",
"+	c #89CFF0",
"...........................................................................................................................................................................................................................................................................................................................",
"...........................................................................................................................................................................................................................................................................................................................",
"...........................................................................................................................................................................................................................................................................................................................",
"...........................................................................................................................................................................................................................................................................................................................",
"...........................................................................................................................................................................................................................................................................................................................",
"...........................................................................................................................................................................................................................................................................................................................",
"...........................................................................................................................................................................................................................................................................................................................",
"...........................................................................................................................................................................................................................................................................................................................",
"...........................................................................................................................................................................................................................................................................................................................",
"...........................................................................................................................................................................................................................................................................................................................",
"...........................................................................................................................................................................................................................................................................................................................",
"...........................................................................................................................................................................................................................................................................................................................",
"...........................................................................................................................................................................................................................................................................................................................",
"...........................................................................................................................................................................................................................................................................................................................",
"+++++++++++++++++++++............................................................................................................++++++++++++++++..........................................................................................................................................................................",
"+++++++++++++++++++++............................................................................................................++++++++++++++++..........................................................................................................................................................................",
"+++++++++++++++++++++............................................................................................................++++++++++++++++..........................................................................................................................................................................",
"+++++++++++++++++++++............................................................................................................++++++++++++++++..........................................................................................................................................................................",
"+++++............++++++++....................................................................................................++++++++........++++++++......................................................................................................................................................................",
"+++++............++++++++....................................................................................................++++++++........++++++++......................................................................................................................................................................",
"+++++............++++++++....................................................................................................++++++++........++++++++......................................................................................................................................................................",
"+++++............++++++++....................................................................................................++++++++........++++++++......................................................................................................................................................................",
"+++++............++++++++....++++++++............++++++++....++++++++............++++++++....................................++++++++............................++++++++++++++++++++++++....++++++++............++++++++........++++++++++++++++++++............++++++++....++++++++++++........++++++++++++++++++++......",
"+++++............++++++++....++++++++............++++++++....++++++++............++++++++....................................++++++++............................++++++++++++++++++++++++....++++++++............++++++++........++++++++++++++++++++............++++++++....++++++++++++........++++++++++++++++++++......",
"+++++............++++++++....++++++++............++++++++....++++++++............++++++++....................................++++++++............................++++++++++++++++++++++++....++++++++............++++++++........++++++++++++++++++++............++++++++....++++++++++++........++++++++++++++++++++......",
"+++++............++++++++....++++++++............++++++++....++++++++............++++++++....................................++++++++............................++++++++++++++++++++++++....++++++++............++++++++........++++++++++++++++++++............++++++++....++++++++++++........++++++++++++++++++++......",
"+++++++++++++++++++++........++++++++............++++++++....++++++++............++++++++........................................++++++++++++++++++++........++++++++............++++++++....++++++++............++++++++........................++++++++........++++++++++++................++++++++............++++++++..",
"+++++++++++++++++++++........++++++++............++++++++....++++++++............++++++++........................................++++++++++++++++++++........++++++++............++++++++....++++++++............++++++++........................++++++++........++++++++++++................++++++++............++++++++..",
"+++++++++++++++++++++........++++++++............++++++++....++++++++............++++++++........................................++++++++++++++++++++........++++++++............++++++++....++++++++............++++++++........................++++++++........++++++++++++................++++++++............++++++++..",
"+++++++++++++++++++++........++++++++............++++++++....++++++++............++++++++........................................++++++++++++++++++++........++++++++............++++++++....++++++++............++++++++........................++++++++........++++++++++++................++++++++............++++++++..",
"+++++............++++++++....++++++++............++++++++....++++++++............++++++++........................................................++++++++....++++++++............++++++++....++++++++............++++++++........++++++++++++++++++++++++........++++++++....................++++++++++++++++++++++++++++..",
"+++++............++++++++....++++++++............++++++++....++++++++............++++++++........................................................++++++++....++++++++............++++++++....++++++++............++++++++........++++++++++++++++++++++++........++++++++....................++++++++++++++++++++++++++++..",
"+++++............++++++++....++++++++............++++++++....++++++++............++++++++........................................................++++++++....++++++++............++++++++....++++++++............++++++++........++++++++++++++++++++++++........++++++++....................++++++++++++++++++++++++++++..",
"+++++............++++++++....++++++++............++++++++....++++++++............++++++++........................................................++++++++....++++++++............++++++++....++++++++............++++++++........++++++++++++++++++++++++........++++++++....................++++++++++++++++++++++++++++..",
"+++++............++++++++....++++++++............++++++++........++++++++++++++++++++++++....................................++++++++............++++++++........++++++++++++++++++++++++....++++++++............++++++++....++++++++............++++++++........++++++++....................++++++++......................",
"+++++............++++++++....++++++++............++++++++........++++++++++++++++++++++++....................................++++++++............++++++++........++++++++++++++++++++++++....++++++++............++++++++....++++++++............++++++++........++++++++....................++++++++......................",
"+++++............++++++++....++++++++............++++++++........++++++++++++++++++++++++....................................++++++++............++++++++........++++++++++++++++++++++++....++++++++............++++++++....++++++++............++++++++........++++++++....................++++++++......................",
"+++++............++++++++....++++++++............++++++++........++++++++++++++++++++++++....................................++++++++............++++++++........++++++++++++++++++++++++....++++++++............++++++++....++++++++............++++++++........++++++++....................++++++++......................",
"+++++++++++++++++++++............++++++++++++++++++++++++........................++++++++........................................++++++++++++++++++++............................++++++++........++++++++++++++++++++++++........++++++++++++++++++++++++........++++++++........................++++++++++++++++++++......",
"+++++++++++++++++++++............++++++++++++++++++++++++........................++++++++........................................++++++++++++++++++++............................++++++++........++++++++++++++++++++++++........++++++++++++++++++++++++........++++++++........................++++++++++++++++++++......",
"+++++++++++++++++++++............++++++++++++++++++++++++........................++++++++........................................++++++++++++++++++++............................++++++++........++++++++++++++++++++++++........++++++++++++++++++++++++........++++++++........................++++++++++++++++++++......",
"+++++++++++++++++++++............++++++++++++++++++++++++........................++++++++........................................++++++++++++++++++++............................++++++++........++++++++++++++++++++++++........++++++++++++++++++++++++........++++++++........................++++++++++++++++++++......",
".................................................................++++++++++++++++++++............................................................................................++++++++..................................................................................................................................",
".................................................................++++++++++++++++++++............................................................................................++++++++..................................................................................................................................",
".................................................................++++++++++++++++++++............................................................................................++++++++..................................................................................................................................",
".................................................................++++++++++++++++++++............................................................................................++++++++..................................................................................................................................",
"...........................................................................................................................................................................................................................................................................................................................",
"...........................................................................................................................................................................................................................................................................................................................",
"...........................................................................................................................................................................................................................................................................................................................",
"...........................................................................................................................................................................................................................................................................................................................",
"...........................................................................................................................................................................................................................................................................................................................",
"...........................................................................................................................................................................................................................................................................................................................",
"...........................................................................................................................................................................................................................................................................................................................",
"...........................................................................................................................................................................................................................................................................................................................",
"...........................................................................................................................................................................................................................................................................................................................",
"...........................................................................................................................................................................................................................................................................................................................",
"...........................................................................................................................................................................................................................................................................................................................",
"...........................................................................................................................................................................................................................................................................................................................",
"...........................................................................................................................................................................................................................................................................................................................",
"..........................................................................................................................................................................................................................................................................................................................."};
