/* XPM */
static const char *noBuy[] = {
"100 60 2 1",
".	c #aeaeae",
"+	c #89CFF0",
"....................................................................................................",
"....................................................................................................",
"....................................................................................................",
"....................................................................................................",
"....................................................................................................",
"....................................................................................................",
"....................................................................................................",
"....................................................................................................",
"....................................................................................................",
"....................................................................................................",
"....................................................................................................",
"....................................................................................................",
"....................................................................................................",
"....................................................................................................",
"..................++++++++............++++++++......................................................",
"..................++++++++............++++++++......................................................",
"..................++++++++............++++++++......................................................",
"..................++++++++............++++++++......................................................",
"..................++++++++++++........++++++++......................................................",
"..................++++++++++++........++++++++......................................................",
"..................++++++++++++........++++++++......................................................",
"..................++++++++++++........++++++++......................................................",
"..................++++++++++++++++....++++++++........++++++++++++++++++++..........................",
"..................++++++++++++++++....++++++++........++++++++++++++++++++..........................",
"..................++++++++++++++++....++++++++........++++++++++++++++++++..........................",
"..................++++++++++++++++....++++++++........++++++++++++++++++++..........................",
"..................++++++++++++++++++++++++++++....++++++++............++++++++......................",
"..................++++++++++++++++++++++++++++....++++++++............++++++++......................",
"..................++++++++++++++++++++++++++++....++++++++............++++++++......................",
"..................++++++++++++++++++++++++++++....++++++++............++++++++......................",
"..................++++++++....++++++++++++++++....++++++++............++++++++......................",
"..................++++++++....++++++++++++++++....++++++++............++++++++......................",
"..................++++++++....++++++++++++++++....++++++++............++++++++......................",
"..................++++++++....++++++++++++++++....++++++++............++++++++......................",
"..................++++++++........++++++++++++....++++++++............++++++++......................",
"..................++++++++........++++++++++++....++++++++............++++++++......................",
"..................++++++++........++++++++++++....++++++++............++++++++......................",
"..................++++++++........++++++++++++....++++++++............++++++++......................",
"..................++++++++............++++++++........++++++++++++++++++++..........................",
"..................++++++++............++++++++........++++++++++++++++++++..........................",
"..................++++++++............++++++++........++++++++++++++++++++..........................",
"..................++++++++............++++++++........++++++++++++++++++++..........................",
"....................................................................................................",
"....................................................................................................",
"....................................................................................................",
"....................................................................................................",
"....................................................................................................",
"....................................................................................................",
"....................................................................................................",
"....................................................................................................",
"....................................................................................................",
"....................................................................................................",
"....................................................................................................",
"....................................................................................................",
"....................................................................................................",
"....................................................................................................",
"....................................................................................................",
"....................................................................................................",
"....................................................................................................",
"...................................................................................................."};
