/* XPM */
static const char *yesBuy[] = {
"100 60 2 1",
".	c #aeaeae",
"+	c #89CFF0",
"....................................................................................................",
"....................................................................................................",
"....................................................................................................",
"....................................................................................................",
"....................................................................................................",
"....................................................................................................",
"....................................................................................................",
"....................................................................................................",
"....................................................................................................",
"....................................................................................................",
"....................................................................................................",
"....................................................................................................",
"....................................................................................................",
"....................................................................................................",
"......++++++++........++++++++......................................................................",
"......++++++++........++++++++......................................................................",
"......++++++++........++++++++......................................................................",
"......++++++++........++++++++......................................................................",
"......++++++++........++++++++......................................................................",
"......++++++++........++++++++......................................................................",
"......++++++++........++++++++......................................................................",
"......++++++++........++++++++......................................................................",
"......++++++++........++++++++........++++++++++++++++++++............++++++++++++++++++++..........",
"......++++++++........++++++++........++++++++++++++++++++............++++++++++++++++++++..........",
"......++++++++........++++++++........++++++++++++++++++++............++++++++++++++++++++..........",
"......++++++++........++++++++........++++++++++++++++++++............++++++++++++++++++++..........",
"..........++++++++++++++++........++++++++............++++++++....++++++++..........................",
"..........++++++++++++++++........++++++++............++++++++....++++++++..........................",
"..........++++++++++++++++........++++++++............++++++++....++++++++..........................",
"..........++++++++++++++++........++++++++............++++++++....++++++++..........................",
"..............++++++++............++++++++++++++++++++++++++++........++++++++++++++++++++..........",
"..............++++++++............++++++++++++++++++++++++++++........++++++++++++++++++++..........",
"..............++++++++............++++++++++++++++++++++++++++........++++++++++++++++++++..........",
"..............++++++++............++++++++++++++++++++++++++++........++++++++++++++++++++..........",
"..............++++++++............++++++++............................................++++++++......",
"..............++++++++............++++++++............................................++++++++......",
"..............++++++++............++++++++............................................++++++++......",
"..............++++++++............++++++++............................................++++++++......",
"..............++++++++................++++++++++++++++++++........++++++++++++++++++++++++..........",
"..............++++++++................++++++++++++++++++++........++++++++++++++++++++++++..........",
"..............++++++++................++++++++++++++++++++........++++++++++++++++++++++++..........",
"..............++++++++................++++++++++++++++++++........++++++++++++++++++++++++..........",
"....................................................................................................",
"....................................................................................................",
"....................................................................................................",
"....................................................................................................",
"....................................................................................................",
"....................................................................................................",
"....................................................................................................",
"....................................................................................................",
"....................................................................................................",
"....................................................................................................",
"....................................................................................................",
"....................................................................................................",
"....................................................................................................",
"....................................................................................................",
"....................................................................................................",
"....................................................................................................",
"....................................................................................................",
"...................................................................................................."};
