/* XPM */
static const char *menuButtonOr[] = {
"150 70 2 1",
".	c #AEAEAE",
"+	c #FF9933",
"......................................................................................................................................................",
"......................................................................................................................................................",
"......................................................................................................................................................",
"...........++++++++............++++++++................................................++++++++.......................................................",
"...........++++++++............++++++++................................................++++++++.......................................................",
"...........++++++++............++++++++................................................++++++++.......................................................",
"...........++++++++............++++++++................................................++++++++.......................................................",
"...........++++++++++++....++++++++++++...............................................................................................................",
"...........++++++++++++....++++++++++++...............................................................................................................",
"...........++++++++++++....++++++++++++...............................................................................................................",
"...........++++++++++++....++++++++++++...............................................................................................................",
"...........++++++++++++++++++++++++++++........++++++++++++++++++++................++++++++++++............++++++++++++++++++++++++...................",
"...........++++++++++++++++++++++++++++........++++++++++++++++++++................++++++++++++............++++++++++++++++++++++++...................",
"...........++++++++++++++++++++++++++++........++++++++++++++++++++................++++++++++++............++++++++++++++++++++++++...................",
"...........++++++++++++++++++++++++++++........++++++++++++++++++++................++++++++++++............++++++++++++++++++++++++...................",
"...........++++++++++++++++++++++++++++........................++++++++................++++++++............++++++++............++++++++...............",
"...........++++++++++++++++++++++++++++........................++++++++................++++++++............++++++++............++++++++...............",
"...........++++++++++++++++++++++++++++........................++++++++................++++++++............++++++++............++++++++...............",
"...........++++++++++++++++++++++++++++........................++++++++................++++++++............++++++++............++++++++...............",
"...........++++++++....++++....++++++++........++++++++++++++++++++++++................++++++++............++++++++............++++++++...............",
"...........++++++++....++++....++++++++........++++++++++++++++++++++++................++++++++............++++++++............++++++++...............",
"...........++++++++....++++....++++++++........++++++++++++++++++++++++................++++++++............++++++++............++++++++...............",
"...........++++++++....++++....++++++++........++++++++++++++++++++++++................++++++++............++++++++............++++++++...............",
"...........++++++++............++++++++....++++++++............++++++++................++++++++............++++++++............++++++++...............",
"...........++++++++............++++++++....++++++++............++++++++................++++++++............++++++++............++++++++...............",
"...........++++++++............++++++++....++++++++............++++++++................++++++++............++++++++............++++++++...............",
"...........++++++++............++++++++....++++++++............++++++++................++++++++............++++++++............++++++++...............",
"...........++++++++............++++++++........++++++++++++++++++++++++........++++++++++++++++++++++++....++++++++............++++++++...............",
"...........++++++++............++++++++........++++++++++++++++++++++++........++++++++++++++++++++++++....++++++++............++++++++...............",
"...........++++++++............++++++++........++++++++++++++++++++++++........++++++++++++++++++++++++....++++++++............++++++++...............",
"...........++++++++............++++++++........++++++++++++++++++++++++........++++++++++++++++++++++++....++++++++............++++++++...............",
"......................................................................................................................................................",
"......................................................................................................................................................",
"......................................................................................................................................................",
"......................................................................................................................................................",
"...........++++++++............++++++++...............................................................................................................",
"...........++++++++............++++++++...............................................................................................................",
"...........++++++++............++++++++...............................................................................................................",
"...........++++++++............++++++++...............................................................................................................",
"...........++++++++++++....++++++++++++...............................................................................................................",
"...........++++++++++++....++++++++++++...............................................................................................................",
"...........++++++++++++....++++++++++++...............................................................................................................",
"...........++++++++++++....++++++++++++...............................................................................................................",
"...........++++++++++++++++++++++++++++........++++++++++++++++++++........++++++++++++++++++++++++........++++++++............++++++++...............",
"...........++++++++++++++++++++++++++++........++++++++++++++++++++........++++++++++++++++++++++++........++++++++............++++++++...............",
"...........++++++++++++++++++++++++++++........++++++++++++++++++++........++++++++++++++++++++++++........++++++++............++++++++...............",
"...........++++++++++++++++++++++++++++........++++++++++++++++++++........++++++++++++++++++++++++........++++++++............++++++++...............",
"...........++++++++++++++++++++++++++++....++++++++............++++++++....++++++++............++++++++....++++++++............++++++++...............",
"...........++++++++++++++++++++++++++++....++++++++............++++++++....++++++++............++++++++....++++++++............++++++++...............",
"...........++++++++++++++++++++++++++++....++++++++............++++++++....++++++++............++++++++....++++++++............++++++++...............",
"...........++++++++++++++++++++++++++++....++++++++............++++++++....++++++++............++++++++....++++++++............++++++++...............",
"...........++++++++....++++....++++++++....++++++++++++++++++++++++++++....++++++++............++++++++....++++++++............++++++++...............",
"...........++++++++....++++....++++++++....++++++++++++++++++++++++++++....++++++++............++++++++....++++++++............++++++++...............",
"...........++++++++....++++....++++++++....++++++++++++++++++++++++++++....++++++++............++++++++....++++++++............++++++++...............",
"...........++++++++....++++....++++++++....++++++++++++++++++++++++++++....++++++++............++++++++....++++++++............++++++++...............",
"...........++++++++............++++++++....++++++++........................++++++++............++++++++....++++++++............++++++++...............",
"...........++++++++............++++++++....++++++++........................++++++++............++++++++....++++++++............++++++++...............",
"...........++++++++............++++++++....++++++++........................++++++++............++++++++....++++++++............++++++++...............",
"...........++++++++............++++++++....++++++++........................++++++++............++++++++....++++++++............++++++++...............",
"...........++++++++............++++++++........++++++++++++++++++++........++++++++............++++++++........++++++++++++++++++++++++...............",
"...........++++++++............++++++++........++++++++++++++++++++........++++++++............++++++++........++++++++++++++++++++++++...............",
"...........++++++++............++++++++........++++++++++++++++++++........++++++++............++++++++........++++++++++++++++++++++++...............",
"...........++++++++............++++++++........++++++++++++++++++++........++++++++............++++++++........++++++++++++++++++++++++...............",
"......................................................................................................................................................",
"......................................................................................................................................................",
"......................................................................................................................................................",
"......................................................................................................................................................",
"......................................................................................................................................................",
"......................................................................................................................................................",
"......................................................................................................................................................"};
