/* XPM */
static const char *redChoice[] = {
"200 50 2 1",
".	c #aeaeae",
"+	c #89CFF0",
"........................................................................................................................................................................................................",
"........................................................................................................................................................................................................",
"........................................................................................................................................................................................................",
"........................................................................................................................................................................................................",
"........................................................................................................................................................................................................",
"........................................................................................................................................................................................................",
"........................................................................................................................................................................................................",
"........................................................................................................................................................................................................",
"........................................................................................................................................................................................................",
"....................................................++++++++++++++++++++++++........++++++++++++++++++++++++++++....++++++++++++++++++++................................................................",
"....................................................++++++++++++++++++++++++........++++++++++++++++++++++++++++....++++++++++++++++++++................................................................",
"....................................................++++++++++++++++++++++++........++++++++++++++++++++++++++++....++++++++++++++++++++................................................................",
"....................................................++++++++++++++++++++++++........++++++++++++++++++++++++++++....++++++++++++++++++++................................................................",
"....................................................++++++++............++++++++....++++++++........................++++++++........++++++++............................................................",
"....................................................++++++++............++++++++....++++++++........................++++++++........++++++++............................................................",
"....................................................++++++++............++++++++....++++++++........................++++++++........++++++++............................................................",
"....................................................++++++++............++++++++....++++++++........................++++++++........++++++++............................................................",
"....................................................++++++++............++++++++....++++++++........................++++++++............++++++++........................................................",
"....................................................++++++++............++++++++....++++++++........................++++++++............++++++++........................................................",
"....................................................++++++++............++++++++....++++++++........................++++++++............++++++++........................................................",
"....................................................++++++++............++++++++....++++++++........................++++++++............++++++++........................................................",
"....................................................++++++++........++++++++++++....++++++++++++++++++++++++........++++++++............++++++++........................................................",
"....................................................++++++++........++++++++++++....++++++++++++++++++++++++........++++++++............++++++++........................................................",
"....................................................++++++++........++++++++++++....++++++++++++++++++++++++........++++++++............++++++++........................................................",
"....................................................++++++++........++++++++++++....++++++++++++++++++++++++........++++++++............++++++++........................................................",
"....................................................++++++++++++++++++++............++++++++........................++++++++............++++++++........................................................",
"....................................................++++++++++++++++++++............++++++++........................++++++++............++++++++........................................................",
"....................................................++++++++++++++++++++............++++++++........................++++++++............++++++++........................................................",
"....................................................++++++++++++++++++++............++++++++........................++++++++............++++++++........................................................",
"....................................................++++++++....++++++++++++........++++++++........................++++++++........++++++++............................................................",
"....................................................++++++++....++++++++++++........++++++++........................++++++++........++++++++............................................................",
"....................................................++++++++....++++++++++++........++++++++........................++++++++........++++++++............................................................",
"....................................................++++++++....++++++++++++........++++++++........................++++++++........++++++++............................................................",
"....................................................++++++++........++++++++++++....++++++++++++++++++++++++++++....++++++++++++++++++++................................................................",
"....................................................++++++++........++++++++++++....++++++++++++++++++++++++++++....++++++++++++++++++++................................................................",
"....................................................++++++++........++++++++++++....++++++++++++++++++++++++++++....++++++++++++++++++++................................................................",
"....................................................++++++++........++++++++++++....++++++++++++++++++++++++++++....++++++++++++++++++++................................................................",
"........................................................................................................................................................................................................",
"........................................................................................................................................................................................................",
"........................................................................................................................................................................................................",
"........................................................................................................................................................................................................",
"........................................................................................................................................................................................................",
"........................................................................................................................................................................................................",
"........................................................................................................................................................................................................",
"........................................................................................................................................................................................................",
"........................................................................................................................................................................................................",
"........................................................................................................................................................................................................",
"........................................................................................................................................................................................................",
"........................................................................................................................................................................................................",
"........................................................................................................................................................................................................"};
