/* XPM */
static const char *resumeButton[] = {
"200 50 2 1",
".	c #aeaeae",
"+	c #89CFF0",
"........................................................................................................................................................................................................",
"........................................................................................................................................................................................................",
"........................................................................................................................................................................................................",
"........................................................................................................................................................................................................",
"........................................................................................................................................................................................................",
"........................................................................................................................................................................................................",
"........................................................................................................................................................................................................",
"........................................................................................................................................................................................................",
"........................................................................................................................................................................................................",
"....++++++++++++++++++++++++............................................................................................................................................................................",
"....++++++++++++++++++++++++............................................................................................................................................................................",
"....++++++++++++++++++++++++............................................................................................................................................................................",
"....++++++++++++++++++++++++............................................................................................................................................................................",
"....++++++++............++++++++........................................................................................................................................................................",
"....++++++++............++++++++........................................................................................................................................................................",
"....++++++++............++++++++........................................................................................................................................................................",
"....++++++++............++++++++........................................................................................................................................................................",
"....++++++++............++++++++........++++++++++++++++++++............++++++++++++++++++++........++++++++............++++++++....++++++++++++++++++++++++............++++++++++++++++++++............",
"....++++++++............++++++++........++++++++++++++++++++............++++++++++++++++++++........++++++++............++++++++....++++++++++++++++++++++++............++++++++++++++++++++............",
"....++++++++............++++++++........++++++++++++++++++++............++++++++++++++++++++........++++++++............++++++++....++++++++++++++++++++++++............++++++++++++++++++++............",
"....++++++++............++++++++........++++++++++++++++++++............++++++++++++++++++++........++++++++............++++++++....++++++++++++++++++++++++............++++++++++++++++++++............",
"....++++++++........++++++++++++....++++++++............++++++++....++++++++........................++++++++............++++++++....++++....++++++++....++++++++....++++++++............++++++++........",
"....++++++++........++++++++++++....++++++++............++++++++....++++++++........................++++++++............++++++++....++++....++++++++....++++++++....++++++++............++++++++........",
"....++++++++........++++++++++++....++++++++............++++++++....++++++++........................++++++++............++++++++....++++....++++++++....++++++++....++++++++............++++++++........",
"....++++++++........++++++++++++....++++++++............++++++++....++++++++........................++++++++............++++++++....++++....++++++++....++++++++....++++++++............++++++++........",
"....++++++++++++++++++++............++++++++++++++++++++++++++++........++++++++++++++++++++........++++++++............++++++++....++++....++++++++....++++++++....++++++++++++++++++++++++++++........",
"....++++++++++++++++++++............++++++++++++++++++++++++++++........++++++++++++++++++++........++++++++............++++++++....++++....++++++++....++++++++....++++++++++++++++++++++++++++........",
"....++++++++++++++++++++............++++++++++++++++++++++++++++........++++++++++++++++++++........++++++++............++++++++....++++....++++++++....++++++++....++++++++++++++++++++++++++++........",
"....++++++++++++++++++++............++++++++++++++++++++++++++++........++++++++++++++++++++........++++++++............++++++++....++++....++++++++....++++++++....++++++++++++++++++++++++++++........",
"....++++++++....++++++++++++........++++++++............................................++++++++....++++++++............++++++++....++++....++++++++....++++++++....++++++++............................",
"....++++++++....++++++++++++........++++++++............................................++++++++....++++++++............++++++++....++++....++++++++....++++++++....++++++++............................",
"....++++++++....++++++++++++........++++++++............................................++++++++....++++++++............++++++++....++++....++++++++....++++++++....++++++++............................",
"....++++++++....++++++++++++........++++++++............................................++++++++....++++++++............++++++++....++++....++++++++....++++++++....++++++++............................",
"....++++++++........++++++++++++........++++++++++++++++++++........++++++++++++++++++++++++............++++++++++++++++++++++++....++++....++++++++....++++++++........++++++++++++++++++++............",
"....++++++++........++++++++++++........++++++++++++++++++++........++++++++++++++++++++++++............++++++++++++++++++++++++....++++....++++++++....++++++++........++++++++++++++++++++............",
"....++++++++........++++++++++++........++++++++++++++++++++........++++++++++++++++++++++++............++++++++++++++++++++++++....++++....++++++++....++++++++........++++++++++++++++++++............",
"....++++++++........++++++++++++........++++++++++++++++++++........++++++++++++++++++++++++............++++++++++++++++++++++++....++++....++++++++....++++++++........++++++++++++++++++++............",
"........................................................................................................................................................................................................",
"........................................................................................................................................................................................................",
"........................................................................................................................................................................................................",
"........................................................................................................................................................................................................",
"........................................................................................................................................................................................................",
"........................................................................................................................................................................................................",
"........................................................................................................................................................................................................",
"........................................................................................................................................................................................................",
"........................................................................................................................................................................................................",
"........................................................................................................................................................................................................",
"........................................................................................................................................................................................................",
"........................................................................................................................................................................................................",
"........................................................................................................................................................................................................"};
