/* XPM */
static const char *statMenu[] = {
"450 38 2 1",
".	c #aeaeae",
"+	c #89CFF0",
"..................................................................................................................................................................................................................................................................................................................................................................................................................................................................",
"..................................................................................................................................................................................................................................................................................................................................................................................................................................................................",
"..................................................................................................................................................................................................................................................................................................................................................................................................................................................................",
".....++++++++++++++++++++++++........................................................................................................................................................................................++++++++........................................................................................++++++++.....................................................................................................................................",
".....++++++++++++++++++++++++........................................................................................................................................................................................++++++++........................................................................................++++++++.....................................................................................................................................",
".....++++++++++++++++++++++++........................................................................................................................................................................................++++++++........................................................................................++++++++.....................................................................................................................................",
".....++++++++++++++++++++++++........................................................................................................................................................................................++++++++........................................................................................++++++++.....................................................................................................................................",
".............++++++++................................................................................................................................................................................................++++++++........................................................................................++++++++............................................................................................................++++++++.................",
".............++++++++................................................................................................................................................................................................++++++++........................................................................................++++++++............................................................................................................++++++++.................",
".............++++++++................................................................................................................................................................................................++++++++........................................................................................++++++++............................................................................................................++++++++.................",
".............++++++++................................................................................................................................................................................................++++++++........................................................................................++++++++............................................................................................................++++++++.................",
".............++++++++................++++++++++++++++++++........++++++++++++++++++++++++........++++++++++++++++++++++++............++++++++++++++++++++............................................++++++++++++++++++++++++........++++++++++++++++++++............................................................++++++++........++++++++++++++++++++............++++++++++++++++++++++++........++++++++++++++++++++................++++++++.................",
".............++++++++................++++++++++++++++++++........++++++++++++++++++++++++........++++++++++++++++++++++++............++++++++++++++++++++............................................++++++++++++++++++++++++........++++++++++++++++++++............................................................++++++++........++++++++++++++++++++............++++++++++++++++++++++++........++++++++++++++++++++................++++++++.................",
".............++++++++................++++++++++++++++++++........++++++++++++++++++++++++........++++++++++++++++++++++++............++++++++++++++++++++............................................++++++++++++++++++++++++........++++++++++++++++++++............................................................++++++++........++++++++++++++++++++............++++++++++++++++++++++++........++++++++++++++++++++................++++++++.................",
".............++++++++................++++++++++++++++++++........++++++++++++++++++++++++........++++++++++++++++++++++++............++++++++++++++++++++............................................++++++++++++++++++++++++........++++++++++++++++++++............................................................++++++++........++++++++++++++++++++............++++++++++++++++++++++++........++++++++++++++++++++................++++++++.................",
".............++++++++............++++++++............++++++++....++++....++++++++....++++++++....++++++++............++++++++....++++++++............++++++++....................................++++++++............++++++++....++++++++............++++++++........................................................++++++++....++++++++............++++++++....++++++++............++++++++....++++++++............++++++++.....................................",
".............++++++++............++++++++............++++++++....++++....++++++++....++++++++....++++++++............++++++++....++++++++............++++++++....................................++++++++............++++++++....++++++++............++++++++........................................................++++++++....++++++++............++++++++....++++++++............++++++++....++++++++............++++++++.....................................",
".............++++++++............++++++++............++++++++....++++....++++++++....++++++++....++++++++............++++++++....++++++++............++++++++....................................++++++++............++++++++....++++++++............++++++++........................................................++++++++....++++++++............++++++++....++++++++............++++++++....++++++++............++++++++.....................................",
".............++++++++............++++++++............++++++++....++++....++++++++....++++++++....++++++++............++++++++....++++++++............++++++++....................................++++++++............++++++++....++++++++............++++++++........................................................++++++++....++++++++............++++++++....++++++++............++++++++....++++++++............++++++++.....................................",
".............++++++++............++++++++++++++++++++++++++++....++++....++++++++....++++++++....++++++++............++++++++....++++++++............++++++++....................................++++++++............++++++++....++++++++++++++++++++++++++++........................................................++++++++....++++++++............++++++++....++++++++............++++++++....++++++++............++++++++............++++++++.................",
".............++++++++............++++++++++++++++++++++++++++....++++....++++++++....++++++++....++++++++............++++++++....++++++++............++++++++....................................++++++++............++++++++....++++++++++++++++++++++++++++........................................................++++++++....++++++++............++++++++....++++++++............++++++++....++++++++............++++++++............++++++++.................",
".............++++++++............++++++++++++++++++++++++++++....++++....++++++++....++++++++....++++++++............++++++++....++++++++............++++++++....................................++++++++............++++++++....++++++++++++++++++++++++++++........................................................++++++++....++++++++............++++++++....++++++++............++++++++....++++++++............++++++++............++++++++.................",
".............++++++++............++++++++++++++++++++++++++++....++++....++++++++....++++++++....++++++++............++++++++....++++++++............++++++++....................................++++++++............++++++++....++++++++++++++++++++++++++++........................................................++++++++....++++++++............++++++++....++++++++............++++++++....++++++++............++++++++............++++++++.................",
".............++++++++............++++++++........................++++....++++++++....++++++++....++++++++++++++++++++++++........++++++++............++++++++....................................++++++++............++++++++....++++++++........................................................++++++++............++++++++....++++++++............++++++++........++++++++++++++++++++++++....++++++++............++++++++............++++++++.................",
".............++++++++............++++++++........................++++....++++++++....++++++++....++++++++++++++++++++++++........++++++++............++++++++....................................++++++++............++++++++....++++++++........................................................++++++++............++++++++....++++++++............++++++++........++++++++++++++++++++++++....++++++++............++++++++............++++++++.................",
".............++++++++............++++++++........................++++....++++++++....++++++++....++++++++++++++++++++++++........++++++++............++++++++....................................++++++++............++++++++....++++++++........................................................++++++++............++++++++....++++++++............++++++++........++++++++++++++++++++++++....++++++++............++++++++............++++++++.................",
".............++++++++............++++++++........................++++....++++++++....++++++++....++++++++++++++++++++++++........++++++++............++++++++....................................++++++++............++++++++....++++++++........................................................++++++++............++++++++....++++++++............++++++++........++++++++++++++++++++++++....++++++++............++++++++............++++++++.................",
".............++++++++................++++++++++++++++++++........++++....++++++++....++++++++....++++++++............................++++++++++++++++++++............................................++++++++++++++++++++++++........++++++++++++++++++++............................................++++++++++++++++++++............++++++++++++++++++++............................++++++++........++++++++++++++++++++.........................................",
".............++++++++................++++++++++++++++++++........++++....++++++++....++++++++....++++++++............................++++++++++++++++++++............................................++++++++++++++++++++++++........++++++++++++++++++++............................................++++++++++++++++++++............++++++++++++++++++++............................++++++++........++++++++++++++++++++.........................................",
".............++++++++................++++++++++++++++++++........++++....++++++++....++++++++....++++++++............................++++++++++++++++++++............................................++++++++++++++++++++++++........++++++++++++++++++++............................................++++++++++++++++++++............++++++++++++++++++++............................++++++++........++++++++++++++++++++.........................................",
".............++++++++................++++++++++++++++++++........++++....++++++++....++++++++....++++++++............................++++++++++++++++++++............................................++++++++++++++++++++++++........++++++++++++++++++++............................................++++++++++++++++++++............++++++++++++++++++++............................++++++++........++++++++++++++++++++.........................................",
".................................................................................................++++++++............................................................................................................................................................................................................................................................++++++++++++++++++++.........................................................................",
".................................................................................................++++++++............................................................................................................................................................................................................................................................++++++++++++++++++++.........................................................................",
".................................................................................................++++++++............................................................................................................................................................................................................................................................++++++++++++++++++++.........................................................................",
".................................................................................................++++++++............................................................................................................................................................................................................................................................++++++++++++++++++++.........................................................................",
"..................................................................................................................................................................................................................................................................................................................................................................................................................................................................",
"..................................................................................................................................................................................................................................................................................................................................................................................................................................................................",
".................................................................................................................................................................................................................................................................................................................................................................................................................................................................."};
