/* XPM */
static const char *whiteSqr[] = {
/* columns rows colors chars-per-pixel */
"100 100 45 1 ",
"  c #515151",
". c #535353",
"X c #575757",
"o c #585858",
"O c #5c5c5c",
"+ c #626262",
"@ c #646464",
"# c #696969",
"$ c #6F6F6F",
"% c #737373",
"& c #777777",
"* c #7a7a7a",
"= c #7E7E7E",
"- c #808080",
"; c #868686",
": c #8a8a8a",
"> c #8E8E8E",
", c #939393",
"< c #979797",
"1 c #9A9A9A",
"2 c #9F9F9F",
"3 c #A2A2A2",
"4 c #A4A4A4",
"5 c #ababab",
"6 c #ACACAC",
"7 c #b0b0b0",
"8 c #B7B7B7",
"9 c #bababa",
"0 c #BCBCBC",
"q c #c2c2c2",
"w c #c4c4c4",
"e c #CACACA",
"r c #CDCDCD",
"t c #d3d3d3",
"y c #d6d6d6",
"u c #dbdbdb",
"i c #dedede",
"p c #E1E1E1",
"a c #E6E6E6",
"s c #e8e8e8",
"d c #EEEEEE",
"f c #f0f0f0",
"g c #F4F4F4",
"h c #fafafa",
"j c #FFFFFF",
/* pixels */
"4qqqqq00q00999999898888877877777777777776777777877878787888888988888888888989889989999999999999900qt",
"4prrreeeweewewewewwwwqqqqwqqqqwqqqwwqwwwwweweeweererrrrtrttytyyuuuuiippppaaasssssssdddfffhghhjjjjhsa",
"35#3211<1<<,<,,>>>>:>::::;;;;-;--;---=-===================***=**=****=*=*=*=*===-=-=---;-;;;;::::<da",
"46=hww000989888888888878787887777777787887888888999999000qqqqwwwweweeerrrrrrrtttttyyyyuyuuiiippaauga",
"35*jpyyuuuuuuuuuuuyuyuyuuyyyyytytttyyyttyttttytytttyytyyyuyyyuyyuyuuuuuiiiiipiippppppapaapaaaadg;wgs",
"34=jtarreewewewwwqwwqqqqqqqqqqqqqqqqq00qq00qq0q000q000q000qq0qq0q00q0qqqqqqqqqwqqwwwwwwwweeeee9g:rga",
"33*jthauuyyyyuyuuyuuuuiuuiuiuiiuiuiiiipiippipppaaaaasassssssdsdddddsddddddfffffffgffgfgggggghu:d;efs",
"22*jrgittrtrrrrrrrrrrrrrrrrrrrrtrrrtrtrtttrtrtrtttttytyyyyyyyyyyyuyuyuyuuuuuiiiiiiiiiiiiipapsq;f;efa",
"22&jrfurrrrereerrrerrrrrrrrttrrrrrrrrrtrttrtrtrttttttttyyytyyyyyyyyyuuyuyuuuuuuuuuuuuiiiiipiaq-f-efa",
"22*jrfutreeeeeeeeeerrrrrrrrrrrrtttrtttrttrrtttttttytttytyytytytyyuyyyyuyuuyyuuuuuuuuuuuiiiips0-f-efa",
"11*hrfurerweeweeeeeeeerrrtrrrrrrtrtrtrrttrttttttttrtttttttytyttyyyyuyuyuyuuuuuuuuyuuuuuiiiipaq-f;wfa",
"2<*hrfyreweweeeweeeerrrerrrrrttrrrtrrrttttrrrttttrttttttttttyyyyyyyyyyyyuyyuuyyuuuuyuuuuuiiia0-f-eda",
"2<&gefyreeeweerrrtrtrtttttttytyyyytytyyytyyyyyuyyuyyyuyuuuuuuuuuiuuiiiiiuipiiipiipipiiuiiuiia0-f;eda",
"1<=gefyeewwq63676667676667766766667666666666666666666666566666667676677777878888888990uiiiipaq;f-wda",
"1,*gedyrwww92;auuyuuuuiuiippipapaapasaassssddsddddddddddddfffffgfggffgfggfffffffffgddisaiippaq-f;wfa",
"2,*gedyrweq92>0@=-=----=========*==*===*===*==*=*=*=*=*=====-=-=--=;--;-;;-:;;::;:>>1psdpiipa0-f-wda",
"1,&gedyeewe92:7Xf677767777777878788888898999900900000q00qqqqqqwwwweweweweeeeerrrrrtrisdsppips0;f-eda",
"2>*gedtewew92>7Xjierrtrttrrrrrrrrrererrrrrrtrrttrtttttyttttyyttytyyyyyyuyyuyyyyyyua#tsssppppa0;f-wda",
"1>*gedtewww92>7Xgtfggfffffffffffffgffgfgfffggfffgffffggfffgfgffffggffgffgffffgggfgp#tadspipps0;f-wdp",
"1,*fwdteeww81:8Xhejjjjjjjjjjjjjjjjjjjjjjjjjjjjjjjjjjjjjjjjjjjjjjjjjjjjjjjjjjjjjjjja#taddpppps0;f-eda",
"1>=feftewww92>7Xgrjjjjjjjjjjjjjjjjjjjjjjjjjjjjjjjjjjjjjjjjjjjjjjjjjjjjjjjjjjjjjjjjp#yadspppps0;f-wda",
"1>=fwdywewe82>7Xhrjjjjjjjjjjjjjjjjjjjjjjjjjjjjjjjjjjjjjjjjjjjjjjjjjjjjjjjjjjjjjjjjp#yadspipps0;f-wdp",
"1>=dwfteewq81>7ogrjjjjjjjjjjjjjjjjjjjjjjjjjjjjjjjjjjjjjjjjjjjjjjjjjjjjjjjjjjjjjjjja@yaddpppps0;f-wda",
"1>=fedtwwww91>7Xgrjjjjjjjjjjjjjjjjjjjjjjjjjjjjjjjjjjjjjjjjjjjjjjjjjjjjjjjjjjjjjjjja@yadsppipa0;g-wfp",
"1>*fwftewww91>7ohtjjjjjjjjjjjjjjjjjjjjjjjjjjjjjjjjjjjjjjjjjjjjjjjjjjjjjjjjjjjjjjjja@uadsapppa0;f-wda",
"1:=fwftweqw81>6ogrjjjjjjjjjjjjjjjjjjjjjjjjjjjjjjjjjjjjjjjjjjjjjjjjjjjjjjjjjjjjjjjjp@uaddpppps0:f=wda",
"1:=fqdtewwq92>6ogtjjjjjjjjjjjjjjjjjjjjjjjjjjjjjjjjjjjjjjjjjjjjjjjjjjjjjjjjjjjjjjjjp+uafsapapa9;f=wdp",
"1:=fqdtwwwq81,6ogrjjjjjjjjjjjjjjjjjjjjjjjjjjjjjjjjjjjjjjjjjjjjjjjjjjjjjjjjjjjjjjjja+uafdpppps9:f=wda",
"1:=dwdrewwq81,6ohrjjjjjjjjjjjjjjjjjjjjjjjjjjjjjjjjjjjjjjjjjjjjjjjjjjjjjjjjjjjjjjjjp+uaddappps9;g*wdp",
"1:=fqfteweq81>6ohrjjjjjjjjjjjjjjjjjjjjjjjjjjjjjjjjjjjjjjjjjjjjjjjjjjjjjjjjjjjjjjjjp+uafsppaps0;f=wfp",
"<;-fqftwwww81,5ohrjjjjjjjjjjjjjjjjjjjjjjjjjjjjjjjjjjjjjjjjjjjjjjjjjjjjjjjjjjjjjjjjp+uagsappas9:f*wfp",
"1;-fqfrewww81>5XgrjjjjjjjjjjjjjjjjjjjjjjjjjjjjjjjjjjjjjjjjjjjjjjjjjjjjjjjjjjjjjjjjaOisfdppppa9;g*wfp",
"1;-fqdrwwww71,6ogtjjjjjjjjjjjjjjjjjjjjjjjjjjjjjjjjjjjjjjjjjjjjjjjjjjjjjjjjjjjjjjjjaOiafdpapps9;g=wfp",
"1;-fqfrwwww81,5ohrjjjjjjjjjjjjjjjjjjjjjjjjjjjjjjjjjjjjjjjjjjjjjjjjjjjjjjjjjjjjjjjjpOiafspapps9:g*wdp",
"1--fqdtwewq81>5ohejjjjjjjjjjjjjjjjjjjjjjjjjjjjjjjjjjjjjjjjjjjjjjjjjjjjjjjjjjjjjjjjpOisfdpppas9;g*wdp",
"<;-fqdrwwww71,4Ogrjjjjjjjjjjjjjjjjjjjjjjjjjjjjjjjjjjjjjjjjjjjjjjjjjjjjjjjjjjjjjjjjp+iagsapips9;f*edp",
"<-;dqdrwwww81,4ohrjjjjjjjjjjjjjjjjjjjjjjjjjjjjjjjjjjjjjjjjjjjjjjjjjjjjjjjjjjjjjjjjpOpafspapps9:f&wdp",
"<--d0drwwwq81>5ohejjjjjjjjjjjjjjjjjjjjjjjjjjjjjjjjjjjjjjjjjjjjjjjjjjjjjjjjjjjjjjjjpOpafdapppa9;g&edp",
"1--f0frqwwq8<>4Ogejjjjjjjjjjjjjjjjjjjjjjjjjjjjjjjjjjjjjjjjjjjjjjjjjjjjjjjjjjjjjjjjpopagdpppas9:f&edp",
"<-;fqdrwqwq71,4Ohrjjjjjjjjjjjjjjjjjjjjjjjjjjjjjjjjjjjjjjjjjjjjjjjjjjjjjjjjjjjjjjjjpoasfsapppa9:g%edp",
"<=-fqdewwqw8<,4ohrjjjjjjjjjjjjjjjjjjjjjjjjjjjjjjjjjjjjjjjjjjjjjjjjjjjjjjjjjjjjjjjjpopafdpppps9;f&edi",
"<=;f0frwqwq71>4Ohejjjjjjjjjjjjjjjjjjjjjjjjjjjjjjjjjjjjjjjjjjjjjjjjjjjjjjjjjjjjjjjjpoaagdpapps8;g&wdp",
"<-;f0drwqqq81,3OgrjjjjjjjjjjjjjjjjjjjjjjjjjjjjjjjjjjjjjjjjjjjjjjjjjjjjjjjjjjjjjjjjiOpagspppas8;g&edp",
",=;fqdrwqqq7<>3ogrjjjjjjjjjjjjjjjjjjjjjjjjjjjjjjjjjjjjjjjjjjjjjjjjjjjjjjjjjjjjjjjjpoasgdappps8;g&wsp",
"<=:f0drwwqq7<,3Ogejjjjjjjjjjjjjjjjjjjjjjjjjjjjjjjjjjjjjjjjjjjjjjjjjjjjjjjjjjjjjjjjioaagsppppa8:g&edi",
"<=;fqdrwwwq7<,3Ohrjjjjjjjjjjjjjjjjjjjjjjjjjjjjjjjjjjjjjjjjjjjjjjjjjjjjjjjjjjjjjjjjioaagspaaps8;g%edi",
"<=;fqdeewqq7<,3ohejjjjjjjjjjjjjjjjjjjjjjjjjjjjjjjjjjjjjjjjjjjjjjjjjjjjjjjjjjjjjjjjiXaafspppps8;g%esp",
"<=:d0fewqqq7<>3OhejjjjjjjjjjjjjjjjjjjjjjjjjjjjjjjjjjjjjjjjjjjjjjjjjjjjjjjjjjjjjjjjiXaafdappps8;g%edi",
"<=:dqdewwwq7<,2OhejjjjjjjjjjjjjjjjjjjjjjjjjjjjjjjjjjjjjjjjjjjjjjjjjjjjjjjjjjjjjjjjiXsagsappps8:f%rsp",
"<*:d0dewqqq7<,3OhwjjjjjjjjjjjjjjjjjjjjjjjjjjjjjjjjjjjjjjjjjjjjjjjjjjjjjjjjjjjjjjjjuXsagspppaa8;h$rdi",
"<=:d0fewqqq6<,3OhejjjjjjjjjjjjjjjjjjjjjjjjjjjjjjjjjjjjjjjjjjjjjjjjjjjjjjjjjjjjjjjjuXsagdpapps8;g%rdi",
"<=:d0dewqqq6<>3+hwjjjjjjjjjjjjjjjjjjjjjjjjjjjjjjjjjjjjjjjjjjjjjjjjjjjjjjjjjjjjjjjjuosagsppppa8:g$tsi",
"<=:d0feq0qq7,>3OhwjjjjjjjjjjjjjjjjjjjjjjjjjjjjjjjjjjjjjjjjjjjjjjjjjjjjjjjjjjjjjjjjiXdpgsppapa8:g$rdi",
"<=:d0dewqqq7<:3+hejjjjjjjjjjjjjjjjjjjjjjjjjjjjjjjjjjjjjjjjjjjjjjjjjjjjjjjjjjjjjjjju.safdapppa8;g$tsi",
",=:d0dewqqq6<,2Ohwjjjjjjjjjjjjjjjjjjjjjjjjjjjjjjjjjjjjjjjjjjjjjjjjjjjjjjjjjjjjjjjju.dagspappa7:h#tsi",
",=>d0fewqqq6,,2@hwjjjjjjjjjjjjjjjjjjjjjjjjjjjjjjjjjjjjjjjjjjjjjjjjjjjjjjjjjjjjjjjju.sagdppppa7:g$rdi",
"<=>f0deqqqq61>2+hwjjjjjjjjjjjjjjjjjjjjjjjjjjjjjjjjjjjjjjjjjjjjjjjjjjjjjjjjjjjjjjjju.dadspappa7;g#tsi",
"<=>f9dewqqw6<>2@hwjjjjjjjjjjjjjjjjjjjjjjjjjjjjjjjjjjjjjjjjjjjjjjjjjjjjjjjjjjjjjjjjy.dpgspppps7:g#ydi",
"<*>f9fewqqq7<>2+gejjjjjjjjjjjjjjjjjjjjjjjjjjjjjjjjjjjjjjjjjjjjjjjjjjjjjjjjjjjjjjjju.dagsppppa8:h#ysi",
"<*>f0drwqqq7<,2@hejjjjjjjjjjjjjjjjjjjjjjjjjjjjjjjjjjjjjjjjjjjjjjjjjjjjjjjjjjjjjjjju.dagsappps7;g#ydi",
"<=>f9frwqqw7<>2+gejjjjjjjjjjjjjjjjjjjjjjjjjjjjjjjjjjjjjjjjjjjjjjjjjjjjjjjjjjjjjjjjy.dpgsppppa8:g#ysi",
"1*,f9feqqqq7<,2@hwjjjjjjjjjjjjjjjjjjjjjjjjjjjjjjjjjjjjjjjjjjjjjjjjjjjjjjjjjjjjjjjjy.fagspppps6:h#usi",
"1*>d0deqqqq7<,1#gejjjjjjjjjjjjjjjjjjjjjjjjjjjjjjjjjjjjjjjjjjjjjjjjjjjjjjjjjjjjjjjjy.fpfsppppa7;g@udi",
"<*<d9feqqqq6<,1#hwjjjjjjjjjjjjjjjjjjjjjjjjjjjjjjjjjjjjjjjjjjjjjjjjjjjjjjjjjjjjjjjjyXfafdppppa8:h@usi",
"<*,d9deqqqq7<,1#hwjjjjjjjjjjjjjjjjjjjjjjjjjjjjjjjjjjjjjjjjjjjjjjjjjjjjjjjjjjjjjjjjy.fafspppps7:g#usi",
"1*,d9feqqqq6<>1#gwjjjjjjjjjjjjjjjjjjjjjjjjjjjjjjjjjjjjjjjjjjjjjjjjjjjjjjjjjjjjjjjjy.gpgspappa7;h@idi",
"1*,d0dewqqw6<>1#gwjjjjjjjjjjjjjjjjjjjjjjjjjjjjjjjjjjjjjjjjjjjjjjjjjjjjjjjjjjjjjjjjt.gagspppps7:g@isi",
"<*,d0drwqqq7,>1$gwjjjjjjjjjjjjjjjjjjjjjjjjjjjjjjjjjjjjjjjjjjjjjjjjjjjjjjjjjjjjjjjjt.gafapppps7;h@psi",
"1*<d0frwqwq6<><$hwjjjjjjjjjjjjjjjjjjjjjjjjjjjjjjjjjjjjjjjjjjjjjjjjjjjjjjjjjjjjjjjjt.gpgspppis8;g@psi",
"<*<d0frwwqq6<,1#gqjjjjjjjjjjjjjjjjjjjjjjjjjjjjjjjjjjjjjjjjjjjjjjjjjjjjjjjjjjjjjjjjr.gpgsppppa7:g@psp",
"1*<d0frwwww6,,<$gwjjjjjjjjjjjjjjjjjjjjjjjjjjjjjjjjjjjjjjjjjjjjjjjjjjjjjjjjjjjjjjjjt.hpgapppps7>g+psi",
"1&<d0frwwqq6,,<$hqjjjjjjjjjjjjjjjjjjjjjjjjjjjjjjjjjjjjjjjjjjjjjjjjjjjjjjjjjjjjjjjjt.gpgsppppa7:g+psi",
"1&<d0frwwwq6<><$gwjjjjjjjjjjjjjjjjjjjjjjjjjjjjjjjjjjjjjjjjjjjjjjjjjjjjjjjjjjjjjjjjt.hpgsipipa6>g@psi",
"1*1s0drwwqq7<,<$gwjjjjjjjjjjjjjjjjjjjjjjjjjjjjjjjjjjjjjjjjjjjjjjjjjjjjjjjjjjjjjjjjr.gpfsppppa7>g+asp",
"1*1s0frwwqq6,,<$gwjjjjjjjjjjjjjjjjjjjjjjjjjjjjjjjjjjjjjjjjjjjjjjjjjjjjjjjjjjjjjjjjrXhpgappipa7:g@pai",
"1&1d0frwwwq7<,<$gwjjjjjjjjjjjjjjjjjjjjjjjjjjjjjjjjjjjjjjjjjjjjjjjjjjjjjjjjjjjjjjjjr.hifapiipa6>g+asu",
"2&<d9drewwq7<,<$hqjjjjjjjjjjjjjjjjjjjjjjjjjjjjjjjjjjjjjjjjjjjjjjjjjjjjjjjjjjjjjjjjrXhifapiipa7>g@asi",
"1*1d0frwwww7<,<%g0jjjjjjjjjjjjjjjjjjjjjjjjjjjjjjjjjjjjjjjjjjjjjjjjjjjjjjjjjjjjjjjjeXhifsipiia6:g+asi",
"1*<d0drewww6<><%gqjjjjjjjjjjjjjjjjjjjjjjjjjjjjjjjjjjjjjjjjjjjjjjjjjjjjjjjjjjjjjjjjeXhifapiips6>g@aai",
"2*1dqdrwwwq7<,,%h0jjjjjjjjjjjjjjjjjjjjjjjjjjjjjjjjjjjjjjjjjjjjjjjjjjjjjjjjjjjjjjjjeXhigapippa6>f+asi",
"2&1dqdtweww7<>,&h0jjjjjjjjjjjjjjjjjjjjjjjjjjjjjjjjjjjjjjjjjjjjjjjjjjjjjjjjjjjjjjjjeXhifappipa6>g@asi",
"2*2d0drwwwq7<,,&h0jjjjjjjjjjjjjjjjjjjjjjjjjjjjjjjjjjjjjjjjjjjjjjjjjjjjjjjjjjjjjjjjeXgifspiipa6:g@ssi",
"3*1dqdrewwq7<,<&jywwwwweeeewweeeeeeerrrrerrtrrrtttttttttytuyyyuyuyyuuyyuuuuuiiiiipuXgifaiipps6:f@ssi",
"3&2dqdreeww7<,,*d55545545445554545455445554555545555555566667676768777878778888989q&hifaiiiia6:g@sau",
"3*2sqdrwweq7<,<#<<<1<111111<<1111<11111111111122122122122222222333334333344444445455rufaiiiia6:gOdsi",
"3*3dqdrewww8<>wq09009999900900q0q00qqqqqqqwqwwwwwwwwweweweeweeeeererrrrttrttttytttttrtfpiiiia6:f+dsi",
"3*2dqfreeww05177777778888788877888888888898999999900990000009000000q00q0000qqq0qq0qqqwpiuuiia5:f+sai",
"4*3dqdrewwwwweeeeeeeewweweeeweeeeeeeeerreeeeererrrrrrrtrrtrtttyttttytytyyyyyyyuyuuuuiuyuuuiip5:fOdsi",
"4=3dqfreewwewqwwwwqwwwwwwwwwwewwwweewwwwwweweweeweweewereeerrrrrrrrrrrtrrtttrttttttytyyuyuuup5;fOssi",
"4*4fqfrewwwwwwwwwwwwwwwwwewwwwewwwwwweeweewewewweeeeeeeeererrerrrrtrrtrrtrrtttttttttyyyyuyuup5;f+dsi",
"4=3dwgteweeweweeewwewewewwewewwwweeweewwewweeeeeeeeeereeerrerrrrrrrrrrtttrttrtttytyytyyyyuuup5;d+dai",
"5=4gwfreeewwewwwweewweweweweweweewwweweeeeeweeeeeeeeeeererererrrtrtrttrrtrtrttttttttyyyuuyuup5;fOdsi",
"5=5gegteeweeewwereeweweweeeweeweeweeeeeeeweeeeeeereerrerrrrrrrrrtrtrtrttttttttttyytyyuyyuiuip6:d@dsi",
"5=5fwjuttttrttttrtrttrtrrtrtrtrtttttrttttttttyyttttyyytyyyyuyyuyyuyuyuyuuuuuuuiiuiiiiiippppps7-d+dsi",
"5-5hesteeewwwwwwwwwewwwwwwwwqwwwqwwqwwwwwwwwwwwwwwwwwwweweeweeeeeweeeeeeererrrrrtrrrrtrtrttty03s@fai",
"6;6jttrtrttttttrttrttttttytttttttttttytttttytttttttytttttyyyyyyuyuyuyuuuuuuuuiuuiiipppppppaaasdd@dai",
"6;9dewwwwqq0000q000009999899989888889888889888888988999999909000000qq0qqqqqwwqwweweeeeeerrrtttyp,dai",
"7-:554443332332332222222121121111111111<<<<1<<<<<1<<<<<<<<<11111211221222233333433444454455556667tsi",
"9r0099898888877777776776666666666655665655565555666656666667677787788888889999000q0qqqqqwwweeerrrwpp",
"4ewwwqqwqq0qqqqqqqq0q0qqqqqqq0qqqq000q0000009000000090qqqqqqqqwqqwqwwwqwwwwwweweweeeeeeereeerrrttttu"
};
